<?xml version="1.0" encoding="UTF-8"?>
<!DOCTYPE svg PUBLIC "-//W3C//DTD SVG 1.1//EN" "http://www.w3.org/Graphics/SVG/1.1/DTD/svg11.dtd">
<svg xmlns="http://www.w3.org/2000/svg" version="1.1" width="477px" height="122px" style="shape-rendering:geometricPrecision; text-rendering:geometricPrecision; image-rendering:optimizeQuality; fill-rule:evenodd; clip-rule:evenodd" xmlns:xlink="http://www.w3.org/1999/xlink">
<g><path style="opacity:1" fill="#fdfdfd" d="M -0.5,-0.5 C 158.5,-0.5 317.5,-0.5 476.5,-0.5C 476.5,40.1667 476.5,80.8333 476.5,121.5C 317.5,121.5 158.5,121.5 -0.5,121.5C -0.5,80.8333 -0.5,40.1667 -0.5,-0.5 Z"/></g>
<g><path style="opacity:1" fill="#68d8d6" d="M 64.5,0.5 C 71.2581,-0.535368 76.4248,1.79797 80,7.5C 91.4043,4.01548 97.7376,8.01548 99,19.5C 108.999,21.8025 113.332,28.1358 112,38.5C 109.579,44.3614 107.579,50.3614 106,56.5C 104,59.8333 101.333,62.5 98,64.5C 96.8381,68.7143 98.3381,70.5477 102.5,70C 107.029,68.4861 111.195,66.3194 115,63.5C 115.667,60.1667 115.667,56.8333 115,53.5C 113.519,50.89 112.352,48.2234 111.5,45.5C 117.43,49.0332 119.93,54.3665 119,61.5C 118.535,62.9308 117.701,64.0975 116.5,65C 111.245,68.5457 105.745,71.7124 100,74.5C 99.963,76.2708 100.13,78.1042 100.5,80C 100.561,82.2605 99.8943,84.2605 98.5,86C 103.267,86.2988 107.434,84.7988 111,81.5C 112.731,77.3316 113.898,72.9983 114.5,68.5C 115.478,68.9767 116.311,69.6433 117,70.5C 119.959,79.7492 117.792,87.5825 110.5,94C 105.669,94.778 101.003,94.278 96.5,92.5C 95.8333,95.8333 95.1667,99.1667 94.5,102.5C 99.4302,102.251 103.097,99.9172 105.5,95.5C 106.135,100.682 103.802,104.182 98.5,106C 93.9127,105.433 90.5794,107.099 88.5,111C 82.4612,115.674 75.7945,116.674 68.5,114C 67.5494,113.282 67.3828,112.449 68,111.5C 72.7488,110.695 77.5821,110.195 82.5,110C 87.7022,106.078 87.3688,105.744 81.5,109C 77.1177,109.457 72.7843,109.457 68.5,109C 64.8683,111.63 61.535,114.63 58.5,118C 45.0271,121.122 35.6938,116.456 30.5,104C 20.8668,104.701 16.0335,100.201 16,90.5C 7.35614,85.0758 4.5228,77.4091 7.5,67.5C 0.238352,57.7399 1.07169,48.7399 10,40.5C 12.4036,32.2533 17.5702,26.2533 25.5,22.5C 28.1257,14.1587 33.7924,8.99202 42.5,7C 46.1667,6.66667 49.8333,6.33333 53.5,6C 56.8684,3.42235 60.5351,1.58902 64.5,0.5 Z"/></g>
<g><path style="opacity:1" fill="#fbfefe" d="M 61.5,4.5 C 65.5138,4.33449 69.5138,4.50115 73.5,5C 75.032,5.69951 76.032,6.86618 76.5,8.5C 72.6042,10.5181 68.4375,11.8514 64,12.5C 60.6169,11.186 57.1169,10.3527 53.5,10C 56.0703,7.91313 58.737,6.0798 61.5,4.5 Z"/></g>
<g><path style="opacity:1" fill="#f8fdfd" d="M 42.5,9.5 C 44.604,9.2011 46.604,9.53443 48.5,10.5C 43.3852,12.8995 38.7185,16.0661 34.5,20C 33.2068,20.49 31.8734,20.6567 30.5,20.5C 30.178,18.2776 30.8446,16.4443 32.5,15C 35.7919,12.824 39.1253,10.9906 42.5,9.5 Z"/></g>
<g><path style="opacity:1" fill="#f8fdfd" d="M 82.5,11.5 C 91.7033,7.79089 95.7033,10.7909 94.5,20.5C 92.8849,19.846 91.2182,19.346 89.5,19C 87.9429,15.6746 85.6096,13.1746 82.5,11.5 Z"/></g>
<g><path style="opacity:1" fill="#f2fbfb" d="M 68.5,13.5 C 72.8461,13.3343 77.1794,13.501 81.5,14C 83.6922,15.3587 85.3589,17.1921 86.5,19.5C 85.0446,20.7445 83.7113,20.5778 82.5,19C 77.8333,18.6667 73.1667,18.3333 68.5,18C 64.7356,16.5787 64.7356,15.0787 68.5,13.5 Z"/></g>
<g><path style="opacity:1" fill="#eefafa" d="M 51.5,14.5 C 53.8568,14.3367 56.1902,14.5034 58.5,15C 53.5129,16.0919 48.5129,17.4253 43.5,19C 41.3911,20.1411 39.5578,21.6411 38,23.5C 37.4926,22.0039 37.9926,20.8373 39.5,20C 43.2273,17.2986 47.2273,15.4653 51.5,14.5 Z"/></g>
<g><path style="opacity:1" fill="#f6fcfc" d="M 48.5,20.5 C 49.552,20.3505 50.552,20.5172 51.5,21C 46.9655,24.3697 42.9655,28.2031 39.5,32.5C 39.1667,31.8333 38.8333,31.1667 38.5,30.5C 39.0909,28.7338 39.9242,27.0672 41,25.5C 43.4795,23.6859 45.9795,22.0192 48.5,20.5 Z"/></g>
<g><path style="opacity:1" fill="#f2fbfb" d="M 58.5,21.5 C 63.3376,21.4213 68.0043,22.2546 72.5,24C 74.2112,25.1332 74.7112,26.6332 74,28.5C 68.0293,24.1908 61.5293,23.3575 54.5,26C 51.7053,27.2997 49.0387,28.7997 46.5,30.5C 45.1667,29.8333 45.1667,29.1667 46.5,28.5C 50.5952,26.1264 54.5952,23.7931 58.5,21.5 Z"/></g>
<g><path style="opacity:1" fill="#f8fdfd" d="M 75.5,21.5 C 82.6434,21.0706 86.6434,24.404 87.5,31.5C 84.8127,31.6641 82.146,31.4974 79.5,31C 78.3937,27.7305 77.0603,24.5639 75.5,21.5 Z"/></g>
<g><path style="opacity:1" fill="#f8fdfd" d="M 88.5,24.5 C 94.4593,22.7653 97.7926,25.0987 98.5,31.5C 96.4727,31.6621 94.4727,31.4955 92.5,31C 91.7807,28.3829 90.4474,26.2162 88.5,24.5 Z"/></g>
<g><path style="opacity:1" fill="#f9fdfd" d="M 100.5,23.5 C 104.923,23.7445 107.756,26.0778 109,30.5C 109.598,34.0527 108.931,37.386 107,40.5C 105.207,37.7047 103.04,35.2047 100.5,33C 101.574,32.2613 102.241,31.2613 102.5,30C 101.726,27.8458 101.059,25.6792 100.5,23.5 Z"/></g>
<g><path style="opacity:1" fill="#141414" d="M 169.5,25.5 C 190.523,22.7472 204.023,31.4139 210,51.5C 213.007,66.4803 208.84,78.9803 197.5,89C 175.415,100.302 158.582,95.1354 147,73.5C 140.893,50.7268 148.393,34.7268 169.5,25.5 Z"/></g>
<g><path style="opacity:1" fill="#121212" d="M 265.5,39.5 C 264.539,41.2646 264.205,43.2646 264.5,45.5C 267.5,45.5 270.5,45.5 273.5,45.5C 273.5,48.1667 273.5,50.8333 273.5,53.5C 270.5,53.5 267.5,53.5 264.5,53.5C 264.5,66.5 264.5,79.5 264.5,92.5C 260.5,92.5 256.5,92.5 252.5,92.5C 252.829,79.3226 252.495,66.3226 251.5,53.5C 246.167,53.5 240.833,53.5 235.5,53.5C 235.5,66.8333 235.5,80.1667 235.5,93.5C 231.167,93.5 226.833,93.5 222.5,93.5C 222.5,80.1667 222.5,66.8333 222.5,53.5C 219.833,53.5 217.167,53.5 214.5,53.5C 214.5,50.8333 214.5,48.1667 214.5,45.5C 217.167,45.5 219.833,45.5 222.5,45.5C 222.44,30.2475 230.107,23.9141 245.5,26.5C 245.5,29.8333 245.5,33.1667 245.5,36.5C 237.673,34.6636 234.34,37.6636 235.5,45.5C 240.833,45.5 246.167,45.5 251.5,45.5C 250.176,36.3075 253.843,30.1408 262.5,27C 266.486,26.5012 270.486,26.3345 274.5,26.5C 274.5,29.8333 274.5,33.1667 274.5,36.5C 272.143,36.3367 269.81,36.5034 267.5,37C 266.619,37.7083 265.953,38.5416 265.5,39.5 Z"/></g>
<g><path style="opacity:1" fill="#141414" d="M 459.5,26.5 C 463.833,26.5 468.167,26.5 472.5,26.5C 472.5,48.8333 472.5,71.1667 472.5,93.5C 468.167,93.5 463.833,93.5 459.5,93.5C 459.66,91.8008 459.494,90.1341 459,88.5C 444.183,98.934 432.85,95.934 425,79.5C 421.263,66.8202 424.096,55.9868 433.5,47C 443.005,41.4618 451.505,42.6284 459,50.5C 459.5,42.5069 459.666,34.5069 459.5,26.5 Z"/></g>
<g><path style="opacity:1" fill="#f7fdfc" d="M 56.5,28.5 C 62.7283,27.6828 68.3949,29.0161 73.5,32.5C 81.6657,43.8032 84.8323,56.4699 83,70.5C 76.1699,80.5129 67.0032,84.1796 55.5,81.5C 55.5,82.5 55.5,83.5 55.5,84.5C 38.2772,83.273 29.6105,73.9397 29.5,56.5C 28.8087,47.5504 32.142,40.5504 39.5,35.5C 39.8333,35.6667 40.1667,35.8333 40.5,36C 35.7983,41.2488 33.7983,47.4154 34.5,54.5C 34.8364,75.3238 45.1698,83.1572 65.5,78C 75.3545,73.1172 78.8545,65.2839 76,54.5C 73.8909,42.7247 66.8909,36.058 55,34.5C 38.8291,39.3418 34.4958,49.3418 42,64.5C 49.5658,74.2572 58.0658,75.0906 67.5,67C 69.0488,65.786 70.2155,64.286 71,62.5C 71.648,57.3424 71.3146,52.3424 70,47.5C 71.2515,49.0009 72.2515,50.6675 73,52.5C 75.7187,71.4458 67.5521,79.2791 48.5,76C 43.1232,72.9569 39.6232,68.4569 38,62.5C 34.5771,52.4534 36.4105,43.6201 43.5,36C 46.308,35.0068 49.1413,34.1734 52,33.5C 52.49,32.2068 52.6567,30.8734 52.5,29.5C 54.099,29.7678 55.4324,29.4345 56.5,28.5 Z"/></g>
<g><path style="opacity:1" fill="#f6fcfc" d="M 29.5,27.5 C 31.5,27.5 33.5,27.5 35.5,27.5C 35.7989,29.604 35.4656,31.604 34.5,33.5C 28.9346,36.1132 23.6013,38.9465 18.5,42C 12.2665,47.6075 9.93314,54.4408 11.5,62.5C 14.4735,64.1468 17.1401,66.1468 19.5,68.5C 15.1793,74.7776 15.8459,80.6109 21.5,86C 17.4179,87.2931 14.2513,86.1265 12,82.5C 10.6632,78.9743 10.1632,75.3076 10.5,71.5C 12.288,71.7852 13.9547,71.4519 15.5,70.5C 12.4791,67.3135 9.64579,63.9802 7,60.5C 6.23429,55.5597 7.06762,50.8931 9.5,46.5C 10.9905,45.7564 12.4905,45.0897 14,44.5C 13.517,38.4714 15.517,33.4714 20,29.5C 20.1667,29.8333 20.3333,30.1667 20.5,30.5C 17.8996,33.9465 17.8996,37.2799 20.5,40.5C 21.086,40.2907 21.586,39.9574 22,39.5C 22.2516,34.0842 24.7516,30.0842 29.5,27.5 Z"/></g>
<g><path style="opacity:1" fill="#fcfefe" d="M 80.5,34.5 C 95.623,34.0332 100.456,41.0332 95,55.5C 93,58.8333 90.3333,61.5 87,63.5C 86.4153,58.489 85.7486,53.489 85,48.5C 83.0083,44.024 81.5083,39.3573 80.5,34.5 Z"/></g>
<g><path style="opacity:1" fill="#f8fdfd" d="M 95.5,34.5 C 103.717,38.2758 106.55,44.6092 104,53.5C 101.294,55.8706 98.9606,58.5372 97,61.5C 98.2591,57.0261 99.0924,52.3594 99.5,47.5C 99.3582,42.7449 98.0249,38.4116 95.5,34.5 Z"/></g>
<g><path style="opacity:1" fill="#fafafa" d="M 172.5,37.5 C 183.86,35.3909 191.36,39.7243 195,50.5C 195.89,57.914 195.557,65.2473 194,72.5C 186.898,83.2106 177.732,85.3773 166.5,79C 157.419,66.5615 157.252,54.0615 166,41.5C 168.095,39.8753 170.261,38.5419 172.5,37.5 Z"/></g>
<g><path style="opacity:1" fill="#f4fcfc" d="M 50.5,38.5 C 54.5138,38.3345 58.5138,38.5012 62.5,39C 64.8333,40 66.5,41.6667 67.5,44C 65.1736,42.6074 62.507,41.7741 59.5,41.5C 47.3502,42.4499 43.1835,48.7832 47,60.5C 48.7089,63.3872 51.2089,64.7205 54.5,64.5C 65.527,63.6124 68.1936,58.4457 62.5,49C 58.0721,48.5554 55.4054,50.5554 54.5,55C 54.4384,57.9649 55.6051,58.7982 58,57.5C 58.49,56.2068 58.6567,54.8734 58.5,53.5C 59.5,53.5 60.5,53.5 61.5,53.5C 59.4735,62.7148 55.3069,63.7148 49,56.5C 49.2141,47.1122 54.0474,43.6122 63.5,46C 69.1683,51.0087 70.0016,56.842 66,63.5C 60.5923,68.6522 54.5923,69.6522 48,66.5C 44.7568,61.2742 42.5902,55.6076 41.5,49.5C 41.6221,47.2088 42.4554,45.2088 44,43.5C 46.3256,41.9343 48.4922,40.2676 50.5,38.5 Z"/></g>
<g><path style="opacity:1" fill="#f8fdfd" d="M 29.5,38.5 C 30.2389,38.369 30.9056,38.5357 31.5,39C 29.3485,41.4689 27.8485,44.3022 27,47.5C 27.066,53.8299 27.066,60.1632 27,66.5C 20.0029,61.8391 18.0029,55.5058 21,47.5C 24.0379,44.6306 26.8712,41.6306 29.5,38.5 Z"/></g>
<g><path style="opacity:1" fill="#818181" d="M 265.5,39.5 C 265.5,41.1667 265.5,42.8333 265.5,44.5C 268.385,44.1936 271.052,44.5269 273.5,45.5C 270.5,45.5 267.5,45.5 264.5,45.5C 264.205,43.2646 264.539,41.2646 265.5,39.5 Z"/></g>
<g><path style="opacity:1" fill="#151515" d="M 310.5,44.5 C 310.5,48.1667 310.5,51.8333 310.5,55.5C 307.615,55.1936 304.948,55.5269 302.5,56.5C 298.246,57.5852 295.413,60.2518 294,64.5C 293.5,74.1609 293.334,83.8276 293.5,93.5C 289.167,93.5 284.833,93.5 280.5,93.5C 280.5,77.5 280.5,61.5 280.5,45.5C 284.5,45.5 288.5,45.5 292.5,45.5C 292.336,48.1873 292.503,50.854 293,53.5C 297.099,46.5354 302.932,43.5354 310.5,44.5 Z"/></g>
<g><path style="opacity:1" fill="#151515" d="M 332.5,43.5 C 359.826,44.7698 368.659,58.4365 359,84.5C 348.268,95.5219 336.101,97.3553 322.5,90C 314.021,81.8874 311.188,72.0541 314,60.5C 317.387,51.7365 323.554,46.0698 332.5,43.5 Z"/></g>
<g><path style="opacity:1" fill="#171717" d="M 387.5,43.5 C 394.322,43.1239 400.988,43.9572 407.5,46C 410.171,47.25 412.337,49.0833 414,51.5C 415.147,65.4768 415.98,79.4768 416.5,93.5C 412.116,93.8256 407.783,93.4922 403.5,92.5C 403.086,88.1683 401.752,87.6683 399.5,91C 389.589,96.4671 380.422,95.6338 372,88.5C 367.062,79.0593 369.229,71.8926 378.5,67C 384.746,65.4591 391.079,64.4591 397.5,64C 401.213,62.3088 402.379,59.4755 401,55.5C 396.863,52.1709 392.363,51.6709 387.5,54C 385.393,55.2635 384.393,57.0968 384.5,59.5C 380.167,59.5 375.833,59.5 371.5,59.5C 371.826,53.3198 374.826,48.8198 380.5,46C 383.004,45.3024 385.337,44.4691 387.5,43.5 Z"/></g>
<g><path style="opacity:1" fill="#707070" d="M 292.5,45.5 C 288.5,45.5 284.5,45.5 280.5,45.5C 280.5,61.5 280.5,77.5 280.5,93.5C 279.504,77.3419 279.17,61.0085 279.5,44.5C 284.032,44.1818 288.366,44.5151 292.5,45.5 Z"/></g>
<g><path style="opacity:1" fill="#eefafa" d="M 16.5,48.5 C 17.647,52.6463 17.8136,56.9796 17,61.5C 12.5658,57.3896 12.3991,53.0562 16.5,48.5 Z"/></g>
<g><path style="opacity:1" fill="#2f2f2f" d="M 251.5,53.5 C 252.495,66.3226 252.829,79.3226 252.5,92.5C 256.5,92.5 260.5,92.5 264.5,92.5C 264.5,92.8333 264.5,93.1667 264.5,93.5C 260.167,93.5 255.833,93.5 251.5,93.5C 251.5,80.1667 251.5,66.8333 251.5,53.5 Z"/></g>
<g><path style="opacity:1" fill="#bebebe" d="M 214.5,53.5 C 217.167,53.5 219.833,53.5 222.5,53.5C 222.5,66.8333 222.5,80.1667 222.5,93.5C 221.505,80.6774 221.171,67.6774 221.5,54.5C 218.941,54.8016 216.607,54.4682 214.5,53.5 Z"/></g>
<g><path style="opacity:1" fill="#898989" d="M 273.5,45.5 C 274.477,48.2869 274.81,51.2869 274.5,54.5C 271.5,54.5 268.5,54.5 265.5,54.5C 265.829,67.6774 265.495,80.6774 264.5,93.5C 264.5,93.1667 264.5,92.8333 264.5,92.5C 264.5,79.5 264.5,66.5 264.5,53.5C 267.5,53.5 270.5,53.5 273.5,53.5C 273.5,50.8333 273.5,48.1667 273.5,45.5 Z"/></g>
<g><path style="opacity:1" fill="#fafafa" d="M 334.5,53.5 C 341.885,52.6002 346.718,55.6002 349,62.5C 350.127,68.7547 349.46,74.7547 347,80.5C 342.413,84.6373 337.247,85.4706 331.5,83C 326.393,76.2154 325.226,68.7154 328,60.5C 329.694,57.6424 331.861,55.309 334.5,53.5 Z"/></g>
<g><path style="opacity:1" fill="#f9f9f9" d="M 444.5,53.5 C 451.358,52.7142 456.191,55.3809 459,61.5C 460.141,68.0841 459.474,74.4174 457,80.5C 452.755,84.5832 447.922,85.4166 442.5,83C 436.302,75.5534 435.136,67.3867 439,58.5C 440.73,56.5981 442.563,54.9314 444.5,53.5 Z"/></g>
<g><path style="opacity:1" fill="#6e6e6e" d="M 310.5,44.5 C 311.483,48.2984 311.817,52.2984 311.5,56.5C 308.5,56.5 305.5,56.5 302.5,56.5C 305.5,56.5 308.5,56.5 311.5,56.5C 311.817,52.2984 311.483,48.2984 310.5,44.5 Z"/></g>
<g><path style="opacity:1" fill="#fafdfd" d="M 85.5,67.5 C 89.729,67.5635 91.729,69.7302 91.5,74C 90.6261,83.0398 85.6261,87.8731 76.5,88.5C 72.688,88.238 69.0213,87.4047 65.5,86C 70.5686,83.816 75.5686,81.4827 80.5,79C 83.4062,75.6894 85.0728,71.856 85.5,67.5 Z"/></g>
<g><path style="opacity:1" fill="#ebfaf9" d="M 91.5,64.5 C 92.4959,64.4142 93.3292,64.7476 94,65.5C 96.4422,70.872 97.1089,76.5386 96,82.5C 92.3312,85.6734 89.1645,89.3401 86.5,93.5C 83.9135,94.48 81.2469,94.8134 78.5,94.5C 78.5,93.5 78.5,92.5 78.5,91.5C 85.5613,91.2992 90.728,87.9659 94,81.5C 95.1949,75.4305 94.3616,69.7638 91.5,64.5 Z"/></g>
<g><path style="opacity:1" fill="#fafdfd" d="M 21.5,70.5 C 22.8333,70.5 24.1667,70.5 25.5,70.5C 25.1417,74.5092 24.6417,78.5092 24,82.5C 19.0203,79.4146 18.1869,75.4146 21.5,70.5 Z"/></g>
<g><path style="opacity:1" fill="#f7f7f7" d="M 398.5,70.5 C 399.5,70.5 400.5,70.5 401.5,70.5C 402.305,83.7177 396.639,88.051 384.5,83.5C 383.438,80.8971 383.272,78.2305 384,75.5C 388.654,73.1433 393.488,71.4767 398.5,70.5 Z"/></g>
<g><path style="opacity:1" fill="#f9fdfd" d="M 29.5,72.5 C 31.9877,73.7399 33.8211,75.7399 35,78.5C 39.3236,84.3884 45.1569,87.2218 52.5,87C 48.1424,89.3717 43.4757,90.0384 38.5,89C 36.3295,87.4138 33.9962,86.0804 31.5,85C 28.2992,81.2939 27.6325,77.1273 29.5,72.5 Z"/></g>
<g><path style="opacity:1" fill="#f6fcfc" d="M 113.5,81.5 C 113.674,84.4071 112.674,87.2405 110.5,90C 107.294,90.8902 104.294,90.5569 101.5,89C 106.374,87.7383 110.374,85.2383 113.5,81.5 Z"/></g>
<g><path style="opacity:1" fill="#fbfefd" d="M 26.5,86.5 C 33.8857,92.6369 42.219,94.1369 51.5,91C 54.748,90.3724 57.748,89.2057 60.5,87.5C 62.1073,87.637 63.4406,88.3036 64.5,89.5C 56.7291,98.5682 47.7291,99.9015 37.5,93.5C 34.9211,94.8883 34.9211,96.3883 37.5,98C 33.5034,97.416 30.0034,95.5827 27,92.5C 26.5045,90.5273 26.3379,88.5273 26.5,86.5 Z"/></g>
<g><path style="opacity:1" fill="#f2fbfb" d="M 19.5,91.5 C 22.1094,91.8301 23.7761,93.3301 24.5,96C 32.4234,100.727 31.7568,101.56 22.5,98.5C 21.2172,96.2699 20.2172,93.9366 19.5,91.5 Z"/></g>
<g><path style="opacity:1" fill="#f6fcfc" d="M 61.5,96.5 C 64.3214,96.5387 66.9881,97.2054 69.5,98.5C 65.63,105.743 59.63,108.243 51.5,106C 48.1194,104.661 44.7861,103.328 41.5,102C 45.9852,100.726 50.6519,100.059 55.5,100C 58.0254,99.5762 60.0254,98.4095 61.5,96.5 Z"/></g>
<g><path style="opacity:1" fill="#ecfaf9" d="M 70.5,102.5 C 75.1785,102.334 79.8452,102.501 84.5,103C 79.9186,105.651 75.0853,106.485 70,105.5C 69.5304,104.423 69.6971,103.423 70.5,102.5 Z"/></g>
<g><path style="opacity:1" fill="#fbfefd" d="M 34.5,103.5 C 43.6144,108.182 53.2811,110.015 63.5,109C 55.9842,116.535 47.8175,117.368 39,111.5C 36.8431,109.183 35.3431,106.516 34.5,103.5 Z"/></g>
</svg>
