<?xml version="1.0" encoding="UTF-8"?>
<!DOCTYPE svg PUBLIC "-//W3C//DTD SVG 1.1//EN" "http://www.w3.org/Graphics/SVG/1.1/DTD/svg11.dtd">
<svg xmlns="http://www.w3.org/2000/svg" version="1.1" width="557px" height="173px" style="shape-rendering:geometricPrecision; text-rendering:geometricPrecision; image-rendering:optimizeQuality; fill-rule:evenodd; clip-rule:evenodd" xmlns:xlink="http://www.w3.org/1999/xlink">
<g><path style="opacity:1" fill="#fefefe" d="M -0.5,-0.5 C 185.167,-0.5 370.833,-0.5 556.5,-0.5C 556.5,57.1667 556.5,114.833 556.5,172.5C 370.833,172.5 185.167,172.5 -0.5,172.5C -0.5,114.833 -0.5,57.1667 -0.5,-0.5 Z"/></g>
<g><path style="opacity:1" fill="#68d8d6" d="M 95.5,25.5 C 102.258,24.4646 107.425,26.798 111,32.5C 122.404,29.0155 128.738,33.0155 130,44.5C 139.999,46.8025 144.332,53.1358 143,63.5C 140.579,69.3614 138.579,75.3614 137,81.5C 135,84.8333 132.333,87.5 129,89.5C 127.838,93.7143 129.338,95.5477 133.5,95C 138.029,93.4861 142.195,91.3194 146,88.5C 146.667,85.1667 146.667,81.8333 146,78.5C 144.519,75.89 143.352,73.2234 142.5,70.5C 148.43,74.0332 150.93,79.3665 150,86.5C 149.535,87.9308 148.701,89.0975 147.5,90C 142.245,93.5457 136.745,96.7124 131,99.5C 130.963,101.271 131.13,103.104 131.5,105C 131.561,107.261 130.894,109.261 129.5,111C 134.267,111.299 138.434,109.799 142,106.5C 143.731,102.332 144.898,97.9983 145.5,93.5C 146.478,93.9767 147.311,94.6433 148,95.5C 150.959,104.749 148.792,112.583 141.5,119C 136.669,119.778 132.003,119.278 127.5,117.5C 126.833,120.833 126.167,124.167 125.5,127.5C 130.43,127.251 134.097,124.917 136.5,120.5C 137.135,125.682 134.802,129.182 129.5,131C 124.913,130.433 121.579,132.099 119.5,136C 113.461,140.674 106.794,141.674 99.5,139C 98.5494,138.282 98.3828,137.449 99,136.5C 103.749,135.695 108.582,135.195 113.5,135C 118.702,131.078 118.369,130.744 112.5,134C 108.118,134.457 103.784,134.457 99.5,134C 95.8683,136.63 92.535,139.63 89.5,143C 76.0271,146.122 66.6938,141.456 61.5,129C 51.8668,129.701 47.0335,125.201 47,115.5C 38.3561,110.076 35.5228,102.409 38.5,92.5C 31.2384,82.7399 32.0717,73.7399 41,65.5C 43.4036,57.2533 48.5702,51.2533 56.5,47.5C 59.1257,39.1587 64.7924,33.992 73.5,32C 77.1667,31.6667 80.8333,31.3333 84.5,31C 87.8684,28.4224 91.5351,26.589 95.5,25.5 Z"/></g>
<g><path style="opacity:1" fill="#fbfefe" d="M 92.5,29.5 C 96.5138,29.3345 100.514,29.5012 104.5,30C 106.032,30.6995 107.032,31.8662 107.5,33.5C 103.604,35.5181 99.4375,36.8514 95,37.5C 91.6169,36.186 88.1169,35.3527 84.5,35C 87.0703,32.9131 89.737,31.0798 92.5,29.5 Z"/></g>
<g><path style="opacity:1" fill="#f8fdfd" d="M 73.5,34.5 C 75.604,34.2011 77.604,34.5344 79.5,35.5C 74.3852,37.8995 69.7185,41.0661 65.5,45C 64.2068,45.49 62.8734,45.6567 61.5,45.5C 61.178,43.2776 61.8446,41.4443 63.5,40C 66.7919,37.824 70.1253,35.9906 73.5,34.5 Z"/></g>
<g><path style="opacity:1" fill="#f8fdfd" d="M 113.5,36.5 C 122.703,32.7909 126.703,35.7909 125.5,45.5C 123.885,44.846 122.218,44.346 120.5,44C 118.943,40.6746 116.61,38.1746 113.5,36.5 Z"/></g>
<g><path style="opacity:1" fill="#f2fbfb" d="M 99.5,38.5 C 103.846,38.3343 108.179,38.501 112.5,39C 114.692,40.3587 116.359,42.1921 117.5,44.5C 116.045,45.7445 114.711,45.5778 113.5,44C 108.833,43.6667 104.167,43.3333 99.5,43C 95.7356,41.5787 95.7356,40.0787 99.5,38.5 Z"/></g>
<g><path style="opacity:1" fill="#eefafa" d="M 82.5,39.5 C 84.8568,39.3367 87.1902,39.5034 89.5,40C 84.5129,41.0919 79.5129,42.4253 74.5,44C 72.3911,45.1411 70.5578,46.6411 69,48.5C 68.4926,47.0039 68.9926,45.8373 70.5,45C 74.2273,42.2986 78.2273,40.4653 82.5,39.5 Z"/></g>
<g><path style="opacity:1" fill="#f6fcfc" d="M 79.5,45.5 C 80.552,45.3505 81.552,45.5172 82.5,46C 77.9655,49.3697 73.9655,53.2031 70.5,57.5C 70.1667,56.8333 69.8333,56.1667 69.5,55.5C 70.0909,53.7338 70.9242,52.0672 72,50.5C 74.4795,48.6859 76.9795,47.0192 79.5,45.5 Z"/></g>
<g><path style="opacity:1" fill="#f2fbfb" d="M 89.5,46.5 C 94.3376,46.4213 99.0043,47.2546 103.5,49C 105.211,50.1332 105.711,51.6332 105,53.5C 99.0293,49.1908 92.5293,48.3575 85.5,51C 82.7053,52.2997 80.0387,53.7997 77.5,55.5C 76.1667,54.8333 76.1667,54.1667 77.5,53.5C 81.5952,51.1264 85.5952,48.7931 89.5,46.5 Z"/></g>
<g><path style="opacity:1" fill="#f8fdfd" d="M 106.5,46.5 C 113.643,46.0706 117.643,49.404 118.5,56.5C 115.813,56.6641 113.146,56.4974 110.5,56C 109.394,52.7305 108.06,49.5639 106.5,46.5 Z"/></g>
<g><path style="opacity:1" fill="#f8fdfd" d="M 119.5,49.5 C 125.459,47.7653 128.793,50.0987 129.5,56.5C 127.473,56.6621 125.473,56.4955 123.5,56C 122.781,53.3829 121.447,51.2162 119.5,49.5 Z"/></g>
<g><path style="opacity:1" fill="#f9fdfd" d="M 131.5,48.5 C 135.923,48.7445 138.756,51.0778 140,55.5C 140.598,59.0527 139.931,62.386 138,65.5C 136.207,62.7047 134.04,60.2047 131.5,58C 132.574,57.2613 133.241,56.2613 133.5,55C 132.726,52.8458 132.059,50.6792 131.5,48.5 Z"/></g>
<g><path style="opacity:1" fill="#141414" d="M 200.5,50.5 C 221.523,47.7472 235.023,56.4139 241,76.5C 244.007,91.4803 239.84,103.98 228.5,114C 206.415,125.302 189.582,120.135 178,98.5C 171.893,75.7268 179.393,59.7268 200.5,50.5 Z"/></g>
<g><path style="opacity:1" fill="#121212" d="M 296.5,64.5 C 295.539,66.2646 295.205,68.2646 295.5,70.5C 298.5,70.5 301.5,70.5 304.5,70.5C 304.5,73.1667 304.5,75.8333 304.5,78.5C 301.5,78.5 298.5,78.5 295.5,78.5C 295.5,91.5 295.5,104.5 295.5,117.5C 291.5,117.5 287.5,117.5 283.5,117.5C 283.829,104.323 283.495,91.3226 282.5,78.5C 277.167,78.5 271.833,78.5 266.5,78.5C 266.5,91.8333 266.5,105.167 266.5,118.5C 262.167,118.5 257.833,118.5 253.5,118.5C 253.5,105.167 253.5,91.8333 253.5,78.5C 250.833,78.5 248.167,78.5 245.5,78.5C 245.5,75.8333 245.5,73.1667 245.5,70.5C 248.167,70.5 250.833,70.5 253.5,70.5C 253.44,55.2475 261.107,48.9141 276.5,51.5C 276.5,54.8333 276.5,58.1667 276.5,61.5C 268.673,59.6636 265.34,62.6636 266.5,70.5C 271.833,70.5 277.167,70.5 282.5,70.5C 281.176,61.3075 284.843,55.1408 293.5,52C 297.486,51.5012 301.486,51.3345 305.5,51.5C 305.5,54.8333 305.5,58.1667 305.5,61.5C 303.143,61.3367 300.81,61.5034 298.5,62C 297.619,62.7083 296.953,63.5416 296.5,64.5 Z"/></g>
<g><path style="opacity:1" fill="#141414" d="M 490.5,51.5 C 494.833,51.5 499.167,51.5 503.5,51.5C 503.5,73.8333 503.5,96.1667 503.5,118.5C 499.167,118.5 494.833,118.5 490.5,118.5C 490.66,116.801 490.494,115.134 490,113.5C 478.68,122.35 468.347,121.35 459,110.5C 453.746,100.857 453.079,90.8569 457,80.5C 466.371,66.7227 477.371,65.0561 490,75.5C 490.5,67.5069 490.666,59.5069 490.5,51.5 Z"/></g>
<g><path style="opacity:1" fill="#f7fdfc" d="M 87.5,53.5 C 93.7283,52.6828 99.3949,54.0161 104.5,57.5C 112.666,68.8032 115.832,81.4699 114,95.5C 107.17,105.513 98.0032,109.18 86.5,106.5C 86.5,107.5 86.5,108.5 86.5,109.5C 69.2772,108.273 60.6105,98.9397 60.5,81.5C 59.8087,72.5504 63.142,65.5504 70.5,60.5C 70.8333,60.6667 71.1667,60.8333 71.5,61C 66.7983,66.2488 64.7983,72.4154 65.5,79.5C 65.8364,100.324 76.1698,108.157 96.5,103C 106.354,98.1172 109.854,90.2839 107,79.5C 104.891,67.7247 97.8909,61.058 86,59.5C 69.8291,64.3418 65.4958,74.3418 73,89.5C 80.5658,99.2572 89.0658,100.091 98.5,92C 100.049,90.786 101.215,89.286 102,87.5C 102.648,82.3424 102.315,77.3424 101,72.5C 102.252,74.0009 103.252,75.6675 104,77.5C 106.719,96.4458 98.5521,104.279 79.5,101C 74.1232,97.9569 70.6232,93.4569 69,87.5C 65.5771,77.4534 67.4105,68.6201 74.5,61C 77.308,60.0068 80.1413,59.1734 83,58.5C 83.49,57.2068 83.6567,55.8734 83.5,54.5C 85.099,54.7678 86.4324,54.4345 87.5,53.5 Z"/></g>
<g><path style="opacity:1" fill="#f6fcfc" d="M 60.5,52.5 C 62.5,52.5 64.5,52.5 66.5,52.5C 66.7989,54.604 66.4656,56.604 65.5,58.5C 59.9346,61.1132 54.6013,63.9465 49.5,67C 43.2665,72.6075 40.9331,79.4408 42.5,87.5C 45.4735,89.1468 48.1401,91.1468 50.5,93.5C 46.1793,99.7776 46.8459,105.611 52.5,111C 48.4179,112.293 45.2513,111.126 43,107.5C 41.6632,103.974 41.1632,100.308 41.5,96.5C 43.288,96.7852 44.9547,96.4519 46.5,95.5C 43.4791,92.3135 40.6458,88.9802 38,85.5C 37.2343,80.5597 38.0676,75.8931 40.5,71.5C 41.9905,70.7564 43.4905,70.0897 45,69.5C 44.517,63.4714 46.517,58.4714 51,54.5C 51.1667,54.8333 51.3333,55.1667 51.5,55.5C 48.8996,58.9465 48.8996,62.2799 51.5,65.5C 52.086,65.2907 52.586,64.9574 53,64.5C 53.2516,59.0842 55.7516,55.0842 60.5,52.5 Z"/></g>
<g><path style="opacity:1" fill="#fcfefe" d="M 111.5,59.5 C 126.623,59.0332 131.456,66.0332 126,80.5C 124,83.8333 121.333,86.5 118,88.5C 117.415,83.489 116.749,78.489 116,73.5C 114.008,69.024 112.508,64.3573 111.5,59.5 Z"/></g>
<g><path style="opacity:1" fill="#f8fdfd" d="M 126.5,59.5 C 134.717,63.2758 137.55,69.6092 135,78.5C 132.294,80.8706 129.961,83.5372 128,86.5C 129.259,82.0261 130.092,77.3594 130.5,72.5C 130.358,67.7449 129.025,63.4116 126.5,59.5 Z"/></g>
<g><path style="opacity:1" fill="#fafafa" d="M 203.5,62.5 C 214.86,60.3909 222.36,64.7243 226,75.5C 226.89,82.914 226.557,90.2473 225,97.5C 217.898,108.211 208.732,110.377 197.5,104C 188.419,91.5615 188.252,79.0615 197,66.5C 199.095,64.8753 201.261,63.5419 203.5,62.5 Z"/></g>
<g><path style="opacity:1" fill="#f4fcfc" d="M 81.5,63.5 C 85.5138,63.3345 89.5138,63.5012 93.5,64C 95.8333,65 97.5,66.6667 98.5,69C 96.1736,67.6074 93.507,66.7741 90.5,66.5C 78.3502,67.4499 74.1835,73.7832 78,85.5C 79.7089,88.3872 82.2089,89.7205 85.5,89.5C 96.527,88.6124 99.1936,83.4457 93.5,74C 89.0721,73.5554 86.4054,75.5554 85.5,80C 85.4384,82.9649 86.6051,83.7982 89,82.5C 89.49,81.2068 89.6567,79.8734 89.5,78.5C 90.5,78.5 91.5,78.5 92.5,78.5C 90.4735,87.7148 86.3069,88.7148 80,81.5C 80.2141,72.1122 85.0474,68.6122 94.5,71C 100.168,76.0087 101.002,81.842 97,88.5C 91.5923,93.6522 85.5923,94.6522 79,91.5C 75.7568,86.2742 73.5902,80.6076 72.5,74.5C 72.6221,72.2088 73.4554,70.2088 75,68.5C 77.3256,66.9343 79.4922,65.2676 81.5,63.5 Z"/></g>
<g><path style="opacity:1" fill="#f8fdfd" d="M 60.5,63.5 C 61.2389,63.369 61.9056,63.5357 62.5,64C 60.3485,66.4689 58.8485,69.3022 58,72.5C 58.066,78.8299 58.066,85.1632 58,91.5C 51.0029,86.8391 49.0029,80.5058 52,72.5C 55.0379,69.6306 57.8712,66.6306 60.5,63.5 Z"/></g>
<g><path style="opacity:1" fill="#818181" d="M 296.5,64.5 C 296.5,66.1667 296.5,67.8333 296.5,69.5C 299.385,69.1936 302.052,69.5269 304.5,70.5C 301.5,70.5 298.5,70.5 295.5,70.5C 295.205,68.2646 295.539,66.2646 296.5,64.5 Z"/></g>
<g><path style="opacity:1" fill="#151515" d="M 341.5,69.5 C 341.5,73.1667 341.5,76.8333 341.5,80.5C 338.615,80.1936 335.948,80.5269 333.5,81.5C 329.246,82.5852 326.413,85.2518 325,89.5C 324.5,99.1609 324.334,108.828 324.5,118.5C 320.167,118.5 315.833,118.5 311.5,118.5C 311.5,102.5 311.5,86.5 311.5,70.5C 315.5,70.5 319.5,70.5 323.5,70.5C 323.336,73.1873 323.503,75.854 324,78.5C 328.099,71.5354 333.932,68.5354 341.5,69.5 Z"/></g>
<g><path style="opacity:1" fill="#151515" d="M 363.5,68.5 C 390.826,69.7698 399.659,83.4365 390,109.5C 379.268,120.522 367.101,122.355 353.5,115C 345.021,106.887 342.188,97.0541 345,85.5C 348.387,76.7365 354.554,71.0698 363.5,68.5 Z"/></g>
<g><path style="opacity:1" fill="#171717" d="M 418.5,68.5 C 425.322,68.1239 431.988,68.9572 438.5,71C 441.171,72.25 443.337,74.0833 445,76.5C 446.147,90.4768 446.98,104.477 447.5,118.5C 443.116,118.826 438.783,118.492 434.5,117.5C 434.086,113.168 432.752,112.668 430.5,116C 420.589,121.467 411.422,120.634 403,113.5C 398.062,104.059 400.229,96.8926 409.5,92C 415.746,90.4591 422.079,89.4591 428.5,89C 432.213,87.3088 433.379,84.4755 432,80.5C 427.863,77.1709 423.363,76.6709 418.5,79C 416.393,80.2635 415.393,82.0968 415.5,84.5C 411.167,84.5 406.833,84.5 402.5,84.5C 402.826,78.3198 405.826,73.8198 411.5,71C 414.004,70.3024 416.337,69.4691 418.5,68.5 Z"/></g>
<g><path style="opacity:1" fill="#707070" d="M 323.5,70.5 C 319.5,70.5 315.5,70.5 311.5,70.5C 311.5,86.5 311.5,102.5 311.5,118.5C 310.504,102.342 310.17,86.0085 310.5,69.5C 315.032,69.1818 319.366,69.5151 323.5,70.5 Z"/></g>
<g><path style="opacity:1" fill="#eefafa" d="M 47.5,73.5 C 48.647,77.6463 48.8136,81.9796 48,86.5C 43.5658,82.3896 43.3991,78.0562 47.5,73.5 Z"/></g>
<g><path style="opacity:1" fill="#2f2f2f" d="M 282.5,78.5 C 283.495,91.3226 283.829,104.323 283.5,117.5C 287.5,117.5 291.5,117.5 295.5,117.5C 295.5,117.833 295.5,118.167 295.5,118.5C 291.167,118.5 286.833,118.5 282.5,118.5C 282.5,105.167 282.5,91.8333 282.5,78.5 Z"/></g>
<g><path style="opacity:1" fill="#bebebe" d="M 245.5,78.5 C 248.167,78.5 250.833,78.5 253.5,78.5C 253.5,91.8333 253.5,105.167 253.5,118.5C 252.505,105.677 252.171,92.6774 252.5,79.5C 249.941,79.8016 247.607,79.4682 245.5,78.5 Z"/></g>
<g><path style="opacity:1" fill="#898989" d="M 304.5,70.5 C 305.477,73.2869 305.81,76.2869 305.5,79.5C 302.5,79.5 299.5,79.5 296.5,79.5C 296.829,92.6774 296.495,105.677 295.5,118.5C 295.5,118.167 295.5,117.833 295.5,117.5C 295.5,104.5 295.5,91.5 295.5,78.5C 298.5,78.5 301.5,78.5 304.5,78.5C 304.5,75.8333 304.5,73.1667 304.5,70.5 Z"/></g>
<g><path style="opacity:1" fill="#fafafa" d="M 365.5,78.5 C 372.885,77.6002 377.718,80.6002 380,87.5C 381.127,93.7547 380.46,99.7547 378,105.5C 373.413,109.637 368.247,110.471 362.5,108C 357.393,101.215 356.226,93.7154 359,85.5C 360.694,82.6424 362.861,80.309 365.5,78.5 Z"/></g>
<g><path style="opacity:1" fill="#f9f9f9" d="M 475.5,78.5 C 482.358,77.7142 487.191,80.3809 490,86.5C 491.141,93.0841 490.474,99.4174 488,105.5C 483.755,109.583 478.922,110.417 473.5,108C 467.302,100.553 466.136,92.3867 470,83.5C 471.73,81.5981 473.563,79.9314 475.5,78.5 Z"/></g>
<g><path style="opacity:1" fill="#6e6e6e" d="M 341.5,69.5 C 342.483,73.2984 342.817,77.2984 342.5,81.5C 339.5,81.5 336.5,81.5 333.5,81.5C 336.5,81.5 339.5,81.5 342.5,81.5C 342.817,77.2984 342.483,73.2984 341.5,69.5 Z"/></g>
<g><path style="opacity:1" fill="#fafdfd" d="M 116.5,92.5 C 120.729,92.5635 122.729,94.7302 122.5,99C 121.626,108.04 116.626,112.873 107.5,113.5C 103.688,113.238 100.021,112.405 96.5,111C 101.569,108.816 106.569,106.483 111.5,104C 114.406,100.689 116.073,96.856 116.5,92.5 Z"/></g>
<g><path style="opacity:1" fill="#ebfaf9" d="M 122.5,89.5 C 123.496,89.4142 124.329,89.7476 125,90.5C 127.442,95.872 128.109,101.539 127,107.5C 123.331,110.673 120.165,114.34 117.5,118.5C 114.914,119.48 112.247,119.813 109.5,119.5C 109.5,118.5 109.5,117.5 109.5,116.5C 116.561,116.299 121.728,112.966 125,106.5C 126.195,100.43 125.362,94.7638 122.5,89.5 Z"/></g>
<g><path style="opacity:1" fill="#fafdfd" d="M 52.5,95.5 C 53.8333,95.5 55.1667,95.5 56.5,95.5C 56.1417,99.5092 55.6417,103.509 55,107.5C 50.0203,104.415 49.1869,100.415 52.5,95.5 Z"/></g>
<g><path style="opacity:1" fill="#f7f7f7" d="M 429.5,95.5 C 430.5,95.5 431.5,95.5 432.5,95.5C 433.305,108.718 427.639,113.051 415.5,108.5C 414.438,105.897 414.272,103.23 415,100.5C 419.654,98.1433 424.488,96.4767 429.5,95.5 Z"/></g>
<g><path style="opacity:1" fill="#f9fdfd" d="M 60.5,97.5 C 62.9877,98.7399 64.8211,100.74 66,103.5C 70.3236,109.388 76.1569,112.222 83.5,112C 79.1424,114.372 74.4757,115.038 69.5,114C 67.3295,112.414 64.9962,111.08 62.5,110C 59.2992,106.294 58.6325,102.127 60.5,97.5 Z"/></g>
<g><path style="opacity:1" fill="#f6fcfc" d="M 144.5,106.5 C 144.674,109.407 143.674,112.24 141.5,115C 138.294,115.89 135.294,115.557 132.5,114C 137.374,112.738 141.374,110.238 144.5,106.5 Z"/></g>
<g><path style="opacity:1" fill="#fbfefd" d="M 57.5,111.5 C 64.8857,117.637 73.219,119.137 82.5,116C 85.748,115.372 88.748,114.206 91.5,112.5C 93.1073,112.637 94.4406,113.304 95.5,114.5C 87.7291,123.568 78.7291,124.902 68.5,118.5C 65.9211,119.888 65.9211,121.388 68.5,123C 64.5034,122.416 61.0034,120.583 58,117.5C 57.5045,115.527 57.3379,113.527 57.5,111.5 Z"/></g>
<g><path style="opacity:1" fill="#f2fbfb" d="M 50.5,116.5 C 53.1094,116.83 54.7761,118.33 55.5,121C 63.4234,125.727 62.7568,126.56 53.5,123.5C 52.2172,121.27 51.2172,118.937 50.5,116.5 Z"/></g>
<g><path style="opacity:1" fill="#f6fcfc" d="M 92.5,121.5 C 95.3214,121.539 97.9881,122.205 100.5,123.5C 96.63,130.743 90.63,133.243 82.5,131C 79.1194,129.661 75.7861,128.328 72.5,127C 76.9852,125.726 81.6519,125.059 86.5,125C 89.0254,124.576 91.0254,123.41 92.5,121.5 Z"/></g>
<g><path style="opacity:1" fill="#ecfaf9" d="M 101.5,127.5 C 106.179,127.334 110.845,127.501 115.5,128C 110.919,130.651 106.085,131.485 101,130.5C 100.53,129.423 100.697,128.423 101.5,127.5 Z"/></g>
<g><path style="opacity:1" fill="#fbfefd" d="M 65.5,128.5 C 74.6144,133.182 84.2811,135.015 94.5,134C 86.9842,141.535 78.8175,142.368 70,136.5C 67.8431,134.183 66.3431,131.516 65.5,128.5 Z"/></g>
</svg>
